<?xml version="1.0" standalone="no"?>
<!DOCTYPE svg PUBLIC "-//W3C//DTD SVG 1.1//EN" "http://www.w3.org/Graphics/SVG/1.1/DTD/svg11.dtd" >
<svg xmlns="http://www.w3.org/2000/svg">
<metadata>Generated by IcoMoon</metadata>
<defs>
<font id="icomoon" horiz-adv-x="1024">
<font-face units-per-em="1024" ascent="870.850439882698" descent="-153.14956011730206" />
<missing-glyph horiz-adv-x="1024" />
<glyph unicode="&#x20;" d="" />
<glyph unicode="&#xe600;" glyph-name="unlock" d="M896.908-58.431v467.955c0 1.99-0.194 3.93-0.472 5.84-0.11 0.745-0.19 1.499-0.34 2.228-1.523 7.447-5.141 14.114-10.174 19.427-0.252 0.266-0.48 0.555-0.741 0.815-0.496 0.494-1.035 0.945-1.554 1.413-0.43 0.386-0.841 0.801-1.289 1.171-0.29 0.24-0.609 0.446-0.905 0.677-2.508 1.956-5.249 3.62-8.184 4.939-0.745 0.334-1.505 0.633-2.272 0.923-4.392 1.658-9.133 2.607-14.106 2.607h-552.724l0.002 55.905c0 114.888 93.467 208.353 208.353 208.353 86.122 0 160.19-52.525 191.885-127.22 0.012-0.028 0.030-0.044 0.042-0.072 5.984-14.58 20.304-24.856 37.040-24.856 22.114 0 40.039 17.924 40.039 40.039 0 4.715-0.859 9.219-2.354 13.423-0.182 0.695-0.42 1.439-0.783 2.294-43.709 103.683-146.283 176.468-265.872 176.468-159.284 0-288.412-129.12-288.432-288.402 0 0 0-0.002 0-0.006v-55.931h-54.904c-20.73 0-37.783-15.757-39.831-35.945-0.136-1.345-0.208-2.711-0.208-4.094v-463.785c-0.619-2.797-0.969-5.694-0.969-8.676 0-22.116 17.928-40.039 40.039-40.039h688.943c22.114 0 40.039 17.928 40.039 40.039-0.002 1.529-0.104 3.031-0.27 4.51zM209.204 369.485h607.625v-392.383h-607.625v392.383zM576.595 215.347c0 35.381-28.682 64.063-64.063 64.063s-64.063-28.682-64.063-64.063c0-20.288 9.441-38.359 24.158-50.097v-58.033c-0.004-22.114 17.924-40.039 40.039-40.039 22.112 0.004 40.039 17.93 40.035 40.039l0.002 58.243c14.564 11.743 23.891 29.723 23.891 49.887z" />
<glyph unicode="&#xe604;" glyph-name="user-add" d="M391.458-30.045c93.007 0 183.189 18.198 268.042 54.085 14.578 6.166 28.882 12.829 42.922 19.937v15.069c0 94.084-194.53 179.884-246.621 188.172-16.174 2.573-16.544 47.042-16.544 47.042s47.522 47.040 57.879 110.302c27.859 0 45.070 67.252 17.205 90.913 1.165 24.906 35.813 195.531-139.6 195.531s-140.763-170.625-139.604-195.531c-27.861-23.661-10.656-90.913 17.207-90.913 10.352-63.262 57.875-110.302 57.875-110.302s-0.368-44.469-16.542-47.042c-51.536-8.2-242.489-92.284-246.521-185.193 24.524-14.17 49.961-26.858 76.27-37.987 84.849-35.885 175.029-54.083 268.034-54.083zM910.954 522.667h-80.086v80.088c0.002 22.112-17.924 40.031-40.035 40.031s-40.037-17.924-40.037-40.035v-80.084h-80.080c-22.116 0-40.039-17.926-40.037-40.039-0.002-22.112 17.922-40.035 40.035-40.035h80.082v-80.080c0-22.116 17.926-40.039 40.039-40.039s40.035 17.924 40.035 40.035v80.084h80.088c22.112-0.002 40.033 17.924 40.033 40.035s-17.926 40.039-40.037 40.039z" />
<glyph unicode="&#xe606;" glyph-name="cog" d="M396.846 706.36l27.795-27.795c23.303-23.313 54.315-36.151 87.327-36.151 0.318 0 0.637 0 0.959 0.004 0.292-0.002 0.581-0.004 0.873-0.004 33.022 0 64.039 12.843 87.305 36.133l27.637 27.631c19.603-6.3 38.62-14.206 56.948-23.665v-40.015c0-32.91 13.419-64.867 36.878-87.974 23.095-23.407 55.020-36.798 87.89-36.798l39.481-0.002c9.177-17.924 16.868-36.498 23.036-55.628l-27.703-27.703c-23.245-23.247-36.354-55.296-36.129-88.182-0.248-32.916 12.857-64.997 36.129-88.276l27.955-27.955c-6.304-19.723-14.226-38.85-23.727-57.286l-39.022-0.002c-0.008 0-0.012 0-0.022 0-32.872 0-64.803-13.393-87.9-36.812-23.453-23.103-36.866-55.054-36.866-87.962v-39.154c-18.398-9.495-37.493-17.423-57.178-23.737l-27.375 27.373c-23.301 23.323-54.317 36.165-87.339 36.165-0.292 0-0.581-0.002-0.873-0.004-0.318 0.004-0.637 0.004-0.959 0.004-33.010 0-64.025-12.839-87.313-36.137l-27.579-27.581c-19.893 6.344-39.182 14.334-57.764 23.925l-0.002 38.167c0.012 32.886-13.381 64.827-36.808 87.932-23.105 23.453-55.058 36.87-87.964 36.87h-38.544c-9.786 18.864-17.915 38.458-24.352 58.681l27.517 27.517c23.269 23.271 36.374 55.35 36.123 88.268 0.224 32.886-12.885 64.935-36.127 88.18l-27.257 27.259c6.296 19.631 14.196 38.666 23.659 57.022h38.98c32.91 0 64.865 13.415 87.97 36.874 23.421 23.109 36.814 55.048 36.802 87.896l0.002 39.066c18.51 9.555 37.725 17.523 57.536 23.857zM421.898 797.727c-59.991-11.958-115.771-35.551-164.913-68.335l-0.004-85.95c0.004-11.687-4.891-22.216-12.718-29.709-7.493-7.838-18.030-12.74-29.731-12.74h-85.89c-32.656-48.994-56.187-104.586-68.155-164.365l60.449-60.453c8.264-8.264 12.246-19.169 12.010-29.997 0.246-10.841-3.738-21.759-12.010-30.033l-60.621-60.619c11.982-60.461 35.775-116.666 68.893-166.11h85.323c11.701 0 22.236-4.905 29.731-12.742 7.826-7.489 12.72-18.016 12.718-29.705l0.004-85.087c49.21-32.828 105.079-56.441 165.167-68.383l60.713 60.715c8.036 8.040 18.568 12.026 29.1 12.026 0.312 0 0.621-0.004 0.931-0.010 0.298 0.006 0.603 0.010 0.901 0.010 10.536 0 21.067-3.986 29.098-12.026l60.601-60.593c59.838 11.98 115.489 35.547 164.517 68.257v86.040c0 11.701 4.905 22.236 12.742 29.731 7.493 7.826 18.020 12.72 29.707 12.718l85.96 0.004c32.7 49.080 56.237 104.776 68.171 164.665l-61.11 61.112c-8.274 8.274-12.256 19.193-12.012 30.033-0.236 10.829 3.746 21.733 12.012 29.997l60.942 60.948c-11.922 59.202-35.192 114.29-67.436 162.917l-86.529 0.004c-0.004 0-0.008 0-0.008 0-11.685 0-22.21 4.895-29.699 12.72-7.838 7.493-12.742 18.030-12.742 29.731v86.901c-48.96 32.664-104.52 56.213-164.266 68.207l-60.851-60.843c-8.032-8.040-18.564-12.026-29.098-12.026-0.3 0-0.603 0.004-0.901 0.012-0.308-0.008-0.619-0.012-0.931-0.012-10.532 0-21.065 3.986-29.1 12.026l-60.966 60.966zM512.356 543.215c-109.121 0-197.579-88.458-197.579-197.577s88.46-197.575 197.579-197.575v-0.134c0.747 0 1.493-0.012 2.242-0.004 14.82 0.16 29.243 1.944 43.098 5.187 1.023 0.238 1.934 0.496 2.797 0.763 17.345 4.993 29.969 21.033 29.767 39.955-0.242 22.732-18.864 40.966-41.597 40.726-2.999-0.032-5.908-0.402-8.717-1.043-0.090-0.016-0.178 0-0.266-0.022-8.188-1.992-16.724-3.099-25.497-3.227-0.587 0.074-1.191 0.124-1.828 0.124-63.548 0-115.255 51.7-115.255 115.251s51.706 115.255 115.255 115.255c63.55 0 115.253-51.702 115.253-115.255 0-8.933-1.029-17.633-2.967-25.983-0.020-0.090-0.008-0.178-0.020-0.268-0.611-2.815-0.949-5.73-0.949-8.729 0-22.732 18.426-41.162 41.162-41.162 18.924 0 34.826 12.79 39.635 30.187 0.262 0.867 0.508 1.782 0.737 2.807 3.095 13.89 4.727 28.328 4.727 43.148 0 109.119-88.458 197.577-197.577 197.577z" />
<glyph unicode="&#xe607;" glyph-name="trash" d="M920.399 632.566h-215.711v120.197c0 20.364-15.207 37.132-34.87 39.671-1.698 0.216-3.413 0.372-5.169 0.372h-304.301c-1.756 0-3.471-0.152-5.169-0.372-19.663-2.542-34.87-19.311-34.87-39.667v-120.201h-216.207c-22.112 0-40.039-17.93-40.039-40.041s17.928-40.039 40.039-40.039h27.243l53.969-616.516h0.214c0-22.114 17.928-40.039 40.039-40.039h573.932c22.116 0 40.039 17.928 40.039 40.039h0.148l53.969 616.516h26.742c22.112 0 40.039 17.928 40.039 40.039s-17.926 40.041-40.037 40.041zM400.387 712.726h224.223v-80.16h-224.223v80.16zM762.807-23.991h-500.613l-50.463 576.475h601.541l-50.465-576.475zM672.661 120.15c22.112 0.002 40.039 17.928 40.035 40.037l0.004 240.237c0 22.116-17.928 40.039-40.039 40.041-22.116 0-40.043-17.928-40.039-40.041v-240.235c-0.004-22.116 17.924-40.041 40.039-40.039zM352.34 120.15c22.112 0.002 40.039 17.928 40.035 40.037l0.004 240.237c0 22.116-17.928 40.039-40.039 40.041-22.116 0-40.043-17.928-40.039-40.041v-240.235c-0.004-22.116 17.924-40.041 40.039-40.039zM512.5 120.15c22.112 0.002 40.039 17.928 40.035 40.037l0.004 240.237c0 22.116-17.928 40.039-40.039 40.041-22.116 0-40.043-17.928-40.039-40.041v-240.235c-0.004-22.116 17.924-40.041 40.039-40.039z" />
<glyph unicode="&#xe608;" glyph-name="edit" d="M949.487 594.361c12.716 12.72 15.087 31.867 7.117 46.982-1.842 3.527-4.236 6.839-7.199 9.802-0.286 0.286-0.595 0.529-0.887 0.801l-129.444 128.76c-0.048 0.048-0.088 0.106-0.138 0.154-7.82 7.82-18.068 11.727-28.32 11.725-10.252 0.004-20.504-3.906-28.324-11.725-0.064-0.066-0.12-0.136-0.184-0.204l-636.79-636.79c-5.874-5.139-10.22-11.97-12.31-19.767l-47.653-177.838c-3.704-13.817 0.248-28.562 10.362-38.676 7.609-7.607 17.833-11.725 28.316-11.725 3.455 0 6.937 0.446 10.362 1.365l177.838 47.653c7.303 1.958 13.745 5.91 18.758 11.227l521.996 521.994c1.127 0.905 2.224 1.872 3.271 2.917 1.043 1.045 2.008 2.14 2.913 3.267l107.855 107.853c0.837 0.711 1.67 1.433 2.46 2.226zM807.689 566.049l-73.664 73.274 56.665 56.665 73.666-73.272-56.667-56.667zM281.841 40.2l-73.472 73.472 469.030 469.026 73.666-73.274-469.224-469.224zM160.653-7.479l11.753 43.865 32.111-32.111-43.865-11.753z" />
<glyph unicode="&#xe60a;" glyph-name="add-circle" d="M512.5 713.853c98.392 0 190.894-38.317 260.468-107.889 69.574-69.576 107.891-162.080 107.891-260.47 0-98.392-38.317-190.894-107.891-260.468s-162.076-107.891-260.468-107.891c-98.39 0-190.894 38.317-260.47 107.891-69.572 69.576-107.889 162.076-107.889 260.468s38.317 190.894 107.889 260.47c69.576 69.572 162.080 107.889 260.47 107.889zM512.5 793.932c-247.666 0-448.438-200.772-448.438-448.438s200.772-448.438 448.438-448.438 448.438 200.772 448.438 448.438-200.772 448.438-448.438 448.438v0zM729.715 384.532h-176.18v176.18c0.002 22.112-17.924 40.033-40.035 40.033s-40.037-17.926-40.037-40.037v-176.176h-176.172c-22.116 0-40.039-17.926-40.037-40.039-0.002-22.112 17.922-40.035 40.035-40.035h176.174v-176.176c0-22.116 17.926-40.039 40.039-40.037 22.112-0.002 40.035 17.922 40.035 40.035v176.178h176.184c22.112-0.002 40.033 17.924 40.033 40.035s-17.928 40.039-40.039 40.039z" />
<glyph unicode="&#xe60b;" glyph-name="plus" d="M921.902 384.532h-368.368v368.364c0.002 22.112-17.924 40.035-40.035 40.035s-40.037-17.928-40.037-40.039v-368.36h-368.362c-22.116 0-40.039-17.926-40.037-40.039-0.002-22.112 17.922-40.035 40.035-40.035l368.364 0.002v-368.37c0-22.116 17.926-40.039 40.039-40.035 22.112-0.004 40.035 17.919 40.035 40.035v368.37h368.37c22.112-0.002 40.033 17.924 40.033 40.035s-17.926 40.037-40.037 40.037z" />
<glyph unicode="&#xe60c;" glyph-name="close" d="M693.699 219.505c15.635-15.637 15.633-40.99 0-56.621-15.637-15.637-40.986-15.639-56.617-0.002l-124.582 124.58-124.578-124.58c-15.637-15.637-40.984-15.637-56.617 0-15.639 15.637-15.639 40.986-0.002 56.623l124.576 124.578-124.574 124.572c-15.637 15.637-15.637 40.986 0 56.619 15.635 15.639 40.984 15.639 56.623 0.002l124.572-124.572 124.576 124.574c15.637 15.635 40.99 15.635 56.621 0 15.637-15.635 15.639-40.984 0.002-56.615l-124.578-124.58 124.578-124.578zM829.594 28.4c-175.127-175.127-459.062-175.127-634.185 0-175.129 175.127-175.129 459.062 0 634.185 175.125 175.129 459.060 175.129 634.185 0 175.125-175.123 175.125-459.060 0-634.185zM880.86 345.496c-0.002 98.392-38.317 190.894-107.891 260.466s-162.078 107.891-260.468 107.893c-98.392-0.002-190.896-38.319-260.47-107.891-69.574-69.576-107.887-162.076-107.891-260.468 0.002-98.392 38.319-190.896 107.891-260.47 69.576-69.574 162.076-107.889 260.47-107.889 98.392 0 190.894 38.315 260.468 107.889s107.889 162.078 107.891 260.47z" />
<glyph unicode="&#xe60d;" glyph-name="cross" d="M1014.277-98.656l-444.154 444.15 444.152 444.152c15.637 15.637 15.635 40.988-0.004 56.621-15.633 15.637-40.982 15.637-56.617 0l-444.15-444.152-444.154 444.152c-15.635 15.639-40.986 15.637-56.621 0s-15.637-40.984 0-56.621l444.156-444.152-444.156-444.158c-15.637-15.633-15.635-40.982 0-56.615s40.988-15.637 56.621 0l444.154 444.152 444.156-444.152c15.633-15.639 40.982-15.637 56.615 0 15.635 15.635 15.637 40.986 0.002 56.623z" />
<glyph unicode="&#xe60e;" glyph-name="sync" d="M999.758 439.64c-15.637 15.637-40.99 15.637-56.621 0l-21.445-21.445c-36.392 192.846-205.705 338.723-409.128 338.723-161.103 0-300.826-91.491-370.071-225.348-4.801-9.287-4.278-8.372-5.009-10.006-0.036-0.078-0.070-0.156-0.106-0.234-0.016-0.032-0.024-0.058-0.040-0.090l0.004-0.004c-1.986-4.751-3.089-9.96-3.089-15.429 0-22.116 17.928-40.039 40.039-40.039 15.327 0 28.626 8.618 35.355 21.263l0.008-0.004c16.204 33.423 38.049 64.267 65.088 91.303 63.522 63.526 147.985 98.51 237.822 98.51 89.834 0 174.294-34.984 237.818-98.51 45.637-45.633 76.519-102.076 90.304-163.554l-26.172 26.174c-15.637 15.639-40.99 15.637-56.625 0-15.639-15.637-15.639-40.99 0-56.625l92.39-92.386c8.048-8.050 18.666-11.922 29.213-11.687 10.538-0.226 21.145 3.644 29.18 11.687l91.089 91.077c15.635 15.637 15.631 40.99-0.004 56.625zM850.823 215.256c-15.327 0-28.626-8.618-35.359-21.263l-0.008 0.004c-16.2-33.427-38.045-64.271-65.084-91.307-63.526-63.522-147.985-98.506-237.822-98.506-89.834 0-174.294 34.984-237.818 98.506-48.279 48.279-80.058 108.652-92.538 174.286l29.321-29.321c15.637-15.637 40.99-15.633 56.621 0.004 15.639 15.637 15.639 40.99 0 56.621l-92.386 92.39c-8.050 8.048-18.67 11.922-29.217 11.683-10.534 0.23-21.143-3.644-29.18-11.683l-91.085-91.081c-15.637-15.637-15.633-40.99 0-56.625 15.637-15.637 40.99-15.637 56.625 0l19.497 19.497c34.125-195.635 204.76-344.358 410.161-344.358 161.103 0 300.826 91.491 370.069 225.344 4.805 9.291 4.282 8.372 5.013 10.010 0.032 0.078 0.070 0.156 0.106 0.234 0.012 0.032 0.024 0.054 0.040 0.090l-0.008 0.004c1.986 4.747 3.093 9.96 3.093 15.429-0.002 22.114-17.93 40.041-40.041 40.041zM146.549 312.622l0.825-0.825-1.401 0.248 0.577 0.577z" />
<glyph unicode="&#xe610;" glyph-name="lock" d="M896.908-58.431v467.955c0 19.121-13.415 35.086-31.341 39.064-0.21 0.046-0.414 0.12-0.629 0.162-0.444 0.090-0.905 0.13-1.355 0.208-2.188 0.37-4.42 0.607-6.715 0.607h-55.957l0.002 55.905h0.020c0 159.296-129.136 288.432-288.432 288.432-159.284 0-288.412-129.118-288.432-288.4v-55.939h-54.906c-20.73 0-37.783-15.757-39.831-35.945-0.136-1.345-0.208-2.711-0.208-4.094v-463.785c-0.619-2.795-0.969-5.694-0.969-8.676 0-22.116 17.928-40.039 40.039-40.039h688.941c22.114 0 40.039 17.928 40.039 40.039 0 1.525-0.102 3.027-0.268 4.506zM209.204 369.485h607.625v-392.383h-607.625v392.383zM304.147 505.468c0 114.888 93.467 208.353 208.353 208.353 114.702 0 208.045-93.165 208.345-207.799 0-0.084-0.012-0.164-0.012-0.248v-56.211h-416.689l0.002 55.905zM552.704 165.46l-0.002-58.245c0.004-22.11-17.924-40.035-40.035-40.037-22.116-0.002-40.043 17.924-40.039 40.039v58.031c-14.718 11.737-24.158 29.811-24.158 50.097 0 35.381 28.682 64.063 64.063 64.063s64.063-28.682 64.063-64.063c0-20.162-9.327-38.141-23.891-49.885z" />
<glyph unicode="&#xe612;" glyph-name="check" d="M949.525 658.049c-15.637 15.633-40.99 15.633-56.625 0l-536.168-536.168-224.279 224.281c-15.639 15.639-40.994 15.635-56.625 0-15.639-15.635-15.639-40.988 0-56.623l251.82-251.82c0.252-0.266 0.472-0.551 0.735-0.813 7.828-7.828 18.090-11.735 28.35-11.725 10.26-0.010 20.522 3.898 28.35 11.725 0.248 0.248 0.456 0.519 0.697 0.771l563.747 563.751c15.635 15.635 15.635 40.982 0 56.621z" />
<glyph unicode="&#xe617;" glyph-name="share" d="M896.874-62.749v560.391c0 22.112-17.928 40.039-40.039 40.039h-178.833c-22.116 0-40.039-17.932-40.039-40.043s17.928-40.039 40.039-40.039h138.794v-480.465h-608.592v480.465h137.464c22.114 0 40.039 17.928 40.039 40.039s-17.926 40.039-40.039 40.043h-178.835c-22.114 0-40.039-17.932-40.039-40.043 0-3.489 0.492-6.855 1.331-10.084v-550.46c0-22.116 17.928-40.039 40.039-40.039h688.679c22.112 0 40.039 17.928 40.039 40.039 0 0.052-0.008 0.104-0.008 0.156zM666.273 657.632l-124.574 124.572c-8.048 8.050-18.668 11.924-29.215 11.685-1.614 0.034-3.225 0-4.833-0.16-0.559-0.054-1.099-0.16-1.652-0.238-0.743-0.104-1.485-0.192-2.22-0.338-0.657-0.13-1.291-0.31-1.934-0.472-0.623-0.156-1.247-0.292-1.862-0.478-0.641-0.196-1.261-0.436-1.888-0.661-0.605-0.216-1.211-0.414-1.806-0.661-0.599-0.248-1.171-0.541-1.756-0.815-0.599-0.282-1.201-0.547-1.788-0.861-0.581-0.31-1.133-0.665-1.696-1.001-0.555-0.332-1.117-0.645-1.658-1.007-0.669-0.448-1.301-0.943-1.942-1.427-0.396-0.302-0.809-0.577-1.197-0.895-1.049-0.859-2.056-1.768-3.011-2.729l-124.52-124.512c-15.637-15.637-15.633-40.99 0.002-56.625 15.637-15.637 40.99-15.637 56.623 0l56.219 56.221v-439.856c0-22.116 17.93-40.039 40.041-40.039s40.039 17.928 40.039 40.039v441.633l57.999-57.997c15.637-15.639 40.988-15.637 56.623 0 15.641 15.631 15.641 40.984 0.002 56.621z" />
<glyph unicode="&#xe619;" glyph-name="email" d="M960.97 589.73c0.749 10.050-2.248 20.384-9.235 28.712-5.99 7.139-13.952 11.633-22.416 13.407-0.13 0.028-0.268 0.066-0.396 0.094-1.083 0.218-2.174 0.376-3.275 0.5-0.25 0.032-0.492 0.078-0.743 0.102-1.029 0.098-2.054 0.136-3.093 0.156-0.292 0.004-0.583 0.042-0.877 0.042h-816.806c-21.437 0-38.886-16.86-39.937-38.037-0.034-0.629-0.092-1.259-0.096-1.892 0-0.036-0.006-0.074-0.006-0.114 0-0.050 0.008-0.102 0.008-0.152v-496.177c0-0.054-0.008-0.106-0.008-0.156 0-22.112 17.928-40.039 40.039-40.039h816.802c13.821 0 26.005 7.003 33.202 17.653 0.1 0.148 0.182 0.312 0.28 0.458 0.607 0.931 1.197 1.87 1.724 2.843 0.046 0.082 0.080 0.172 0.124 0.258 2.995 5.611 4.709 12.020 4.709 18.822v0 0 493.518zM144.173 507.496l340.278-281.463c6.574-6.44 14.933-10.178 23.587-11.133 0.16-0.024 0.32-0.050 0.48-0.066 0.839-0.082 1.678-0.114 2.52-0.14 0.496-0.020 0.995-0.058 1.493-0.058s0.997 0.042 1.493 0.058c0.843 0.028 1.682 0.058 2.52 0.14 0.16 0.016 0.32 0.042 0.48 0.066 8.654 0.959 17.013 4.693 23.587 11.133l340.278 281.483v-371.257h-736.719v371.237zM215.276 552.666h594.491l-297.236-245.662-297.254 245.662z" />
<glyph unicode="&#xe623;" glyph-name="arrow-up" d="M512.525 601.744c10.246 0 20.49-3.908 28.31-11.723l344.49-344.434c15.639-15.635 15.639-40.986 0.006-56.625-15.637-15.637-40.988-15.639-56.623-0.004l-316.185 316.129-316.229-316.177c-15.639-15.633-40.992-15.633-56.623 0.004-15.635 15.639-15.633 40.99 0.006 56.625l344.54 344.48c7.816 7.818 18.062 11.725 28.308 11.725z" />
<glyph unicode="&#xe626;" glyph-name="arrow-down" d="M512.476 89.241c-10.246 0-20.49 3.908-28.31 11.723l-344.49 344.434c-15.639 15.635-15.639 40.986-0.006 56.625 15.637 15.637 40.988 15.639 56.623 0.004l316.185-316.129 316.231 316.177c15.639 15.633 40.992 15.631 56.623-0.004 15.635-15.639 15.633-40.99-0.006-56.625l-344.54-344.48c-7.818-7.818-18.064-11.725-28.31-11.725z" />
<glyph unicode="&#xe634;" glyph-name="list-unordered" d="M961.939 624.766c0-22.112-17.926-40.039-40.039-40.039h-608.59c-22.112 0-40.039 17.926-40.039 40.039v0c0 22.112 17.926 40.041 40.039 40.041h608.59c22.114 0 40.039-17.93 40.039-40.041v0zM961.939 64.219c0-22.112-17.926-40.039-40.039-40.039h-608.59c-22.112 0-40.039 17.926-40.039 40.039v0c0 22.112 17.926 40.041 40.039 40.041h608.59c22.114 0 40.039-17.93 40.039-40.041v0zM961.939 251.069c0-22.112-17.926-40.039-40.039-40.039h-608.59c-22.112 0-40.039 17.924-40.039 40.039v0c0 22.112 17.926 40.039 40.039 40.039h608.59c22.114 0 40.039-17.928 40.039-40.039v0zM961.939 437.916c0-22.112-17.926-40.039-40.039-40.039h-608.59c-22.112 0-40.039 17.928-40.039 40.039v0c0 22.112 17.926 40.043 40.039 40.043h608.59c22.114 0 40.039-17.932 40.039-40.043v0zM193.189 624.768c0-35.381-28.682-64.063-64.063-64.063s-64.063 28.682-64.063 64.063c0 35.381 28.682 64.063 64.063 64.063s64.063-28.682 64.063-64.063zM193.189 64.221c0-35.381-28.682-64.063-64.063-64.063s-64.063 28.682-64.063 64.063c0 35.381 28.682 64.063 64.063 64.063s64.063-28.682 64.063-64.063zM193.189 251.069c0-35.381-28.682-64.063-64.063-64.063s-64.063 28.682-64.063 64.063c0 35.381 28.682 64.063 64.063 64.063s64.063-28.682 64.063-64.063zM193.189 437.92c0-35.381-28.682-64.063-64.063-64.063s-64.063 28.682-64.063 64.063c0 35.381 28.682 64.063 64.063 64.063s64.063-28.682 64.063-64.063z" />
<glyph unicode="&#xe801;" glyph-name="search-1" horiz-adv-x="951" d="M659.076 382.394q0 105.575-75.85 180.4t-180.4 75.85-181.425-75.85-74.825-180.4 74.825-181.425 181.425-74.825 180.4 74.825 75.85 181.425zM952.226-94.232q0-29.725-22.55-51.25t-51.25-21.525q-30.75 0-51.25 21.525l-195.775 195.775q-102.5-70.725-228.575-70.725-82 0-156.825 31.775t-128.125 86.1-86.1 128.125-31.775 156.825 31.775 155.8 86.1 129.15 128.125 86.1 156.825 31.775 155.8-31.775 129.15-86.1 86.1-129.15 31.775-155.8q0-126.075-70.725-228.575l195.775-195.775q21.525-21.525 21.525-52.275z" />
<glyph unicode="&#xe900;" glyph-name="check-alt" d="M512 896c-282.752 0-512-229.248-512-512s229.248-512 512-512 512 229.248 512 512-229.248 512-512 512zM432.64 147.744l-235.584 235.616 90.496 90.496 145.056-145.12 307.744 307.744 90.496-90.496-398.208-398.24z" />
<glyph unicode="&#xe901;" glyph-name="checkmark" d="M192 512l-192-192 384-384 640 640-192 192-448-448z" />
<glyph unicode="&#xe902;" glyph-name="keyboard" horiz-adv-x="1152" d="M1088 768h-1024c-35.2 0-64-28.8-64-64v-640c0-35.2 28.8-64 64-64h1024c35.2 0 64 28.8 64 64v640c0 35.2-28.8 64-64 64zM640 640h128v-128h-128v128zM832 448v-128h-128v128h128zM448 640h128v-128h-128v128zM640 448v-128h-128v128h128zM256 640h128v-128h-128v128zM448 448v-128h-128v128h128zM128 640h64v-128h-64v128zM128 448h128v-128h-128v128zM192 128h-64v128h64v-128zM768 128h-512v128h512v-128zM1024 128h-192v128h192v-128zM1024 320h-128v128h128v-128zM1024 512h-192v128h192v-128z" />
<glyph unicode="&#xe903;" glyph-name="key" d="M704 896c-176.73 0-320-143.268-320-320 0-20.026 1.858-39.616 5.376-58.624l-389.376-389.376v-192c0-35.346 28.654-64 64-64h64v64h128v128h128v128h128l83.042 83.042c34.010-12.316 70.696-19.042 108.958-19.042 176.73 0 320 143.268 320 320s-143.27 320-320 320zM799.874 575.874c-53.020 0-96 42.98-96 96s42.98 96 96 96 96-42.98 96-96-42.98-96-96-96z" />
<glyph unicode="&#xe904;" glyph-name="key2" d="M1002.132 581.758l-101.106 101.104c-24.792 24.794-65.37 65.368-90.162 90.164l-101.106 101.104c-24.792 24.794-68.954 29.166-98.13 9.716l-276.438-184.292c-29.176-19.452-40.218-61.028-24.536-92.39l70.486-140.974c2.154-4.306 4.646-8.896 7.39-13.66l-356.53-356.53-32-224h192v64h128v128h128v128h128v71.186c6.396-3.812 12.534-7.216 18.192-10.044l140.97-70.488c31.366-15.682 72.94-4.638 92.39 24.538l184.294 276.44c19.454 29.172 15.078 73.33-9.714 98.126zM150.628 41.374l-45.254 45.254 311.572 311.57 45.254-45.254-311.572-311.57zM917.020 472.236l-45.256-45.256c-12.446-12.444-32.808-12.444-45.254 0l-271.53 271.53c-12.446 12.444-12.446 32.81 0 45.254l45.256 45.256c12.446 12.444 32.808 12.444 45.254 0l271.53-271.53c12.446-12.444 12.446-32.81 0-45.254z" />
<glyph unicode="&#xe905;" glyph-name="mail-envelope-closed" d="M170.080 567.235l247.52-215.235-247.581-215.287c-6.206 5.878-10.019 14.235-10.019 23.507v383.562c0 9.253 3.874 17.582 10.080 23.454zM885.981 567.287c6.206-5.878 10.019-14.235 10.019-23.507v-383.562c0-9.252-3.874-17.582-10.080-23.454l-247.52 215.235 247.581 215.287zM614.459 331.181l233.541-203.181h-640l233.541 203.181 86.459-75.181 86.459 75.181zM192.115 608c-35.41 0-64.115-28.624-64.115-63.81v-384.38c0-35.241 28.472-63.81 64.115-63.81h671.77c35.41 0 64.115 28.624 64.115 63.81v384.38c0 35.241-28.472 63.81-64.115 63.81h-671.77zM528 297.6l-320 278.4h640l-320-278.4z" />
<glyph unicode="&#xe906;" glyph-name="mail-envelope-open" d="M528 768l-400-352v-448.19c0-35.241 28.472-63.81 64.115-63.81h671.77c35.41 0 64.115 28.624 64.115 63.81v448.19l-400 352zM432 128h192l224-192h-640l224 192zM528 726.4l352-310.4-288-256h-128l-288 256 352 310.4zM885.924-55.205l-245.924 214.659 256 224.547v-416.001c0-9.060-3.872-17.338-10.076-23.204v0 0zM170.076-55.205v0 0c-6.203 5.866-10.076 14.145-10.076 23.204v416.001l256-224.547-245.924-214.659z" />
<glyph unicode="&#xe907;" glyph-name="thumb-down" d="M320.313 249.4h-192.249c-35.348 0-64.002 28.51-64.002 64.066v416.4c0 35.383 28.403 64.066 64.002 64.066h624.402c44.374 0 80.347-35.544 80.347-80.078 0-18.028-5.937-34.664-15.992-48.048 44.24-0.156 80.054-35.642 80.054-80.077 0-20.365-7.575-38.954-20.107-53.086 30.46-11.313 52.138-40.468 52.138-75.039 0-20.365-7.575-38.954-20.107-53.086 30.46-11.313 52.138-40.468 52.138-75.039 0-44.226-35.728-80.078-80.347-80.078h-191.926c33.611-160.696 17.509-352.344-112.101-352.344s-61.937 153.355-112.109 248.649c-50.172 95.295-144.141 103.695-144.141 103.695v0 0zM127.83 281.431h160.452v480.469h-160.452c-17.291 0-31.736-14.448-31.736-32.271v-415.927c0-17.891 14.209-32.271 31.736-32.271zM192.188 697.838c17.69 0 32.031-14.341 32.031-32.031s-14.341-32.031-32.031-32.031c-17.69 0-32.031 14.341-32.031 32.031s14.341 32.031 32.031 32.031v0 0zM650.235 281.431h230.846c26.561 0 47.826 21.511 47.826 48.047 0 26.72-21.412 48.047-47.826 48.047h-112.331v32.031h80.299c26.561 0 47.826 21.511 47.826 48.047 0 26.72-21.412 48.047-47.826 48.047h-112.331v32.031h80.299c26.561 0 47.826 21.511 47.826 48.047 0 26.72-21.412 48.047-47.826 48.047h-112.331v32.031h47.993c26.602 0 48.101 21.511 48.101 48.047 0 26.72-21.535 48.047-48.101 48.047h-432.368c0 0 0-416.407 0-480.469 48.047 0 89.88-32.031 89.88-32.031 29.155-18.204 60.737-45.748 82.163-86.443 50.172-95.295-7.75-233.869 84.207-233.869 94.821 0 110.445 155.44 80.116 320.313 0 0-6.443 32.031-6.443 32.031v0 0z" />
<glyph unicode="&#xe908;" glyph-name="thumb-up" d="M352.344 441.587h-192.249c-35.348 0-64.002-28.51-64.002-64.066v-416.4c0-35.383 28.403-64.066 64.002-64.066h624.402c44.374 0 80.347 35.544 80.347 80.078 0 18.028-5.937 34.664-15.992 48.048 44.24 0.156 80.054 35.642 80.054 80.077 0 20.365-7.575 38.954-20.107 53.086 30.46 11.313 52.138 40.468 52.138 75.039 0 20.365-7.575 38.954-20.107 53.086 30.46 11.313 52.138 40.468 52.138 75.039 0 44.226-35.728 80.078-80.347 80.078h-191.926c33.611 160.696 17.509 352.344-112.101 352.344s-61.937-153.355-112.109-248.649c-50.172-95.295-144.141-103.695-144.141-103.695v0 0zM159.861 409.556h160.452v-480.469h-160.452c-17.291 0-31.736 14.448-31.736 32.271v415.927c0 17.891 14.209 32.271 31.736 32.271zM224.219-6.85c17.69 0 32.031 14.341 32.031 32.031s-14.341 32.031-32.031 32.031c-17.69 0-32.031-14.341-32.031-32.031s14.341-32.031 32.031-32.031v0 0zM682.266 409.556h230.846c26.561 0 47.826-21.511 47.826-48.047 0-26.72-21.412-48.047-47.826-48.047h-112.331v-32.031h80.299c26.561 0 47.826-21.511 47.826-48.047 0-26.72-21.412-48.047-47.826-48.047h-112.331v-32.031h80.299c26.561 0 47.826-21.511 47.826-48.047 0-26.72-21.412-48.047-47.826-48.047h-112.331v-32.031h47.993c26.602 0 48.101-21.511 48.101-48.047 0-26.72-21.535-48.047-48.101-48.047h-432.368c0 0 0 416.407 0 480.469 48.047 0 89.88 32.031 89.88 32.031 29.155 18.204 60.737 45.748 82.163 86.443 50.172 95.295-7.75 233.869 84.207 233.869 94.821 0 110.445-155.44 80.116-320.313 0 0-6.443-32.031-6.443-32.031v0 0z" />
<glyph unicode="&#xe909;" glyph-name="home3" d="M1025.001 281.431l-192.188 192.188v288.282h-128.125v-160.156l-192.188 192.188-512.5-512.5v-32.031h128.125v-320.313h320.313v192.188h128.125v-192.188h320.313v320.313h128.125z" />
<glyph unicode="&#xe90a;" glyph-name="image" d="M960.822 761.9c0.040-0.034 0.082-0.076 0.116-0.116v-768.521c-0.034-0.040-0.076-0.082-0.116-0.116h-896.646c-0.040 0.034-0.082 0.076-0.114 0.116v768.523c0.034 0.040 0.076 0.082 0.114 0.114h896.646zM960.938 825.963h-896.876c-35.234 0-64.063-28.828-64.063-64.063v-768.751c0-35.234 28.828-64.063 64.063-64.063h896.876c35.234 0 64.063 28.828 64.063 64.063v768.751c0 35.234-28.828 64.063-64.063 64.063v0zM832.813 601.744c0-53.072-43.022-96.094-96.094-96.094s-96.094 43.022-96.094 96.094 43.022 96.094 96.094 96.094 96.094-43.022 96.094-96.094zM896.876 57.212h-768.751v128.125l224.219 384.375 256.25-320.313h64.063l224.219 192.188z" />
<glyph unicode="&#xe90b;" glyph-name="bullhorn" d="M1025.001 460.35c0 201.122-58.849 364.294-131.611 365.583 0.292 0.006 0.579 0.030 0.873 0.030h-83.023c0 0-194.99-146.479-475.695-203.953-8.568-45.336-14.044-99.371-14.044-161.66s5.471-116.322 14.044-161.658c280.702-57.474 475.695-203.955 475.695-203.955h83.023c-0.292 0-0.579 0.024-0.873 0.032 72.767 1.289 131.611 164.459 131.611 365.581zM865.669 150.051c-9.391 0-19.551 9.752-24.77 15.563-12.642 14.078-24.816 35.995-35.222 63.39-23.279 61.292-36.101 143.45-36.101 231.35 0 87.896 12.823 170.056 36.101 231.348 10.404 27.395 22.584 49.314 35.222 63.39 5.219 5.818 15.379 15.567 24.77 15.567 9.389 0 19.555-9.754 24.768-15.567 12.646-14.078 24.82-35.993 35.222-63.39 23.281-61.29 36.103-143.452 36.103-231.348 0-87.89-12.823-170.054-36.103-231.35-10.4-27.395-22.584-49.312-35.222-63.39-5.213-5.812-15.375-15.563-24.768-15.563zM252.058 460.35c0 52.001 3.814 102.53 11.063 149.24-47.418-6.56-89.029-10.334-140.477-10.334-67.124 0-67.124 0-67.124 0l-55.52-94.779v-88.256l55.514-94.779c0 0 0 0 67.126 0 51.448 0 93.059-3.778 140.477-10.334-7.243 46.71-11.059 97.241-11.059 149.242zM368.51 247.226l-128.123 24.534 81.922-321.858c4.24-16.65 20.764-25.062 36.722-18.672l118.672 47.498c15.96 6.382 22.35 23.987 14.21 39.122l-123.403 229.376zM865.669 340.759c-3.622 0-7.535 3.758-9.547 5.998-4.875 5.425-9.565 13.874-13.575 24.432-8.971 23.623-13.914 55.288-13.914 89.165s4.943 65.542 13.914 89.165c4.010 10.558 8.705 19.007 13.575 24.432 2.012 2.242 5.926 6 9.547 6s7.537-3.76 9.547-6c4.875-5.425 9.565-13.872 13.573-24.432 8.973-23.621 13.916-55.288 13.916-89.165 0-33.875-4.943-65.542-13.916-89.165-4.008-10.558-8.705-19.007-13.573-24.432-2.010-2.24-5.926-5.998-9.547-5.998z" />
<glyph unicode="&#xe90c;" glyph-name="user" d="M576.563 182.723v52.832c70.567 39.767 128.125 138.908 128.125 238.064 0 159.213 0 288.282-192.188 288.282s-192.188-129.068-192.188-288.282c0-99.157 57.558-198.298 128.125-238.064v-52.832c-217.314-17.765-384.375-124.542-384.375-253.636h896.876c0 129.094-167.061 235.87-384.375 253.636z" />
<glyph unicode="&#xe90d;" glyph-name="spinner6" d="M384.375 761.9c0 70.761 57.364 128.125 128.125 128.125s128.125-57.364 128.125-128.125c0-70.761-57.364-128.125-128.125-128.125s-128.125 57.364-128.125 128.125zM791.767 377.525c0 0 0 0 0 0 0 58.050 47.059 105.109 105.109 105.109s105.109-47.059 105.109-105.109c0 0 0 0 0 0 0-58.050-47.059-105.109-105.109-105.109s-105.109 47.059-105.109 105.109zM689.097 105.73c0 52.577 42.622 95.199 95.199 95.199s95.199-42.622 95.199-95.199c0-52.577-42.622-95.199-95.199-95.199s-95.199 42.622-95.199 95.199zM426.278-6.85c0 47.62 38.603 86.222 86.222 86.222s86.222-38.603 86.222-86.222c0-47.62-38.603-86.222-86.222-86.222s-86.222 38.603-86.222 86.222zM162.613 105.73c0 43.13 34.964 78.094 78.094 78.094s78.094-34.964 78.094-78.094c0-43.13-34.964-78.094-78.094-78.094s-78.094 34.964-78.094 78.094zM57.394 377.525c0 39.064 31.667 70.731 70.731 70.731s70.731-31.667 70.731-70.731c0-39.064-31.667-70.731-70.731-70.731s-70.731 31.667-70.731 70.731zM176.645 649.318c0 0 0 0 0 0 0 35.381 28.682 64.063 64.063 64.063s64.063-28.682 64.063-64.063c0 0 0 0 0 0 0-35.381-28.682-64.063-64.063-64.063s-64.063 28.682-64.063 64.063zM900.343 649.318c0-64.087-51.957-116.047-116.049-116.047-64.087 0-116.049 51.961-116.049 116.047 0 64.095 51.963 116.047 116.049 116.047 64.093 0 116.049-51.953 116.049-116.047z" />
<glyph unicode="&#xe90e;" glyph-name="zoom-in" d="M993.232 17.778l-242.789 206.496c-25.099 22.588-51.941 32.958-73.624 31.957 57.312 67.134 91.932 154.229 91.932 249.42 0 212.285-172.090 384.375-384.375 384.375-212.283 0-384.375-172.090-384.375-384.375s172.090-384.375 384.375-384.375c95.191 0 182.286 34.62 249.42 91.934-1.001-21.683 9.369-48.525 31.957-73.624l206.496-242.789c35.357-39.284 93.113-42.596 128.345-7.363s31.923 92.989-7.361 128.345zM384.375 249.4c-141.522 0-256.25 114.728-256.25 256.25s114.728 256.25 256.25 256.25 256.25-114.728 256.25-256.25-114.726-256.25-256.25-256.25zM448.438 697.838h-128.125v-128.125h-128.125v-128.125h128.125v-128.125h128.125v128.125h128.125v128.125h-128.125z" />
<glyph unicode="&#xe90f;" glyph-name="zoom-out" d="M993.232 17.778l-242.789 206.496c-25.099 22.588-51.941 32.958-73.624 31.957 57.312 67.134 91.932 154.229 91.932 249.42 0 212.285-172.090 384.375-384.375 384.375-212.283 0-384.375-172.090-384.375-384.375s172.090-384.375 384.375-384.375c95.191 0 182.286 34.62 249.42 91.934-1.001-21.683 9.369-48.525 31.957-73.624l206.496-242.789c35.357-39.284 93.113-42.596 128.345-7.363s31.923 92.989-7.361 128.345zM384.375 249.4c-141.522 0-256.25 114.728-256.25 256.25s114.728 256.25 256.25 256.25 256.25-114.728 256.25-256.25-114.726-256.25-256.25-256.25zM192.188 569.713h384.375v-128.125h-384.375z" />
<glyph unicode="&#xe910;" glyph-name="enlarge2" d="M1025.001 890.025v-416.407l-160.156 160.156-192.188-192.188-96.094 96.094 192.188 192.188-160.156 160.156zM448.438 217.369l-192.188-192.188 160.156-160.156h-416.407v416.407l160.156-160.156 192.188 192.188z" />
<glyph unicode="&#xe911;" glyph-name="shrink2" d="M448.438 313.462v-416.407l-160.156 160.156-192.188-192.188-96.094 96.094 192.188 192.188-160.156 160.156zM1025.001 793.932l-192.188-192.188 160.156-160.156h-416.407v416.407l160.156-160.156 192.188 192.188z" />
<glyph unicode="&#xe912;" glyph-name="pie-chart" d="M448.438 313.462v448.438c-247.666 0-448.438-200.772-448.438-448.438s200.772-448.438 448.438-448.438 448.438 200.772 448.438 448.438c0 72.104-17.045 140.221-47.282 200.578l-401.156-200.578zM913.656 642.165c-73.624 146.96-225.594 247.86-401.156 247.86v-448.438l401.156 200.578z" />
<glyph unicode="&#xe913;" glyph-name="list-numbered" d="M384.375 57.212h640.626v-128.125h-640.626zM384.375 441.587h640.626v-128.125h-640.626zM384.375 825.963h640.626v-128.125h-640.626zM192.188 890.025v-256.25h-64.063v192.188h-64.063v64.063zM128.125 363.511v-50.049h128.125v-64.063h-192.188v146.143l128.125 60.059v50.049h-128.125v64.063h192.188v-146.143zM256.25 185.337v-320.313h-192.188v64.063h128.125v64.063h-128.125v64.063h128.125v64.063h-128.125v64.063z" />
<glyph unicode="&#xe914;" glyph-name="download3" d="M736.719 441.587l-256.25-256.25-256.25 256.25h160.156v384.375h192.188v-384.375zM480.469 185.337h-480.469v-256.25h960.938v256.25h-480.469zM896.876 57.212h-128.125v64.063h128.125v-64.063z" />
<glyph unicode="&#xe915;" glyph-name="attachment" d="M666.483 562.658l-65.015 64.985-325.128-325.059c-53.867-53.845-53.867-141.186 0-195.034 53.857-53.845 141.198-53.845 195.064 0l390.153 390.089c89.802 89.75 89.802 235.292 0 325.043-89.754 89.792-235.342 89.792-325.099 0l-409.63-409.578c-0.29-0.304-0.613-0.577-0.877-0.847-125.224-125.218-125.224-328.176 0-453.349 125.176-125.178 328.188-125.178 453.431 0 0.274 0.274 0.517 0.569 0.821 0.877l0.032-0.034 279.605 279.565-65.050 64.983-279.603-279.535c-0.296-0.268-0.565-0.571-0.847-0.845-89.161-89.145-234.209-89.145-323.392 0-89.149 89.129-89.149 234.151 0 323.294 0.304 0.304 0.605 0.583 0.889 0.847l-0.046 0.060 409.68 409.566c53.765 53.791 141.282 53.791 195.077 0 53.765-53.787 53.765-141.286 0-195.030l-390.153-390.081c-17.954-17.94-47.1-17.94-65.036 0-17.911 17.903-17.911 47.078 0 64.983l325.124 325.099z" />
<glyph unicode="&#xe916;" glyph-name="star-empty" d="M1025.001 492.587l-354.126 51.458-158.375 320.895-158.371-320.895-354.13-51.458 256.25-249.782-60.491-352.696 316.741 166.521 316.741-166.521-60.493 352.696 256.252 249.782zM512.5 135.791l-223.68-117.595 42.718 249.073-180.963 176.394 250.084 36.339 111.841 226.617 111.845-226.617 250.080-36.339-180.965-176.394 42.72-249.073-223.68 117.595z" />
<glyph unicode="&#xe917;" glyph-name="star-half" d="M1025.001 492.587l-354.126 51.458-158.375 320.895-158.371-320.895-354.13-51.458 256.25-249.782-60.491-352.696 316.741 166.521 316.741-166.521-60.493 352.696 256.252 249.782zM512.5 135.791l-0.943-0.496 0.943 571.326 111.845-226.617 250.080-36.339-180.965-176.394 42.72-249.073-223.68 117.595z" />
<glyph unicode="&#xe918;" glyph-name="star-full" d="M1025.001 492.587l-354.126 51.458-158.375 320.895-158.371-320.895-354.13-51.458 256.25-249.782-60.491-352.696 316.741 166.521 316.741-166.521-60.493 352.696 256.252 249.782z" />
<glyph unicode="&#xe919;" glyph-name="question" d="M448.438 185.337h128.125v-128.125h-128.125zM704.688 633.775c35.381 0 64.063-28.682 64.063-64.063v-192.188l-192.188-128.125h-128.125v64.063l192.188 128.125v64.063h-320.313v128.125h384.375zM512.5 793.932c-111.227 0-215.795-43.314-294.444-121.963s-121.963-183.217-121.963-294.444c0-111.227 43.314-215.795 121.963-294.444s183.217-121.963 294.444-121.963c111.227 0 215.795 43.314 294.444 121.963s121.963 183.217 121.963 294.444c0 111.227-43.314 215.795-121.963 294.444s-183.217 121.963-294.444 121.963zM512.5 890.025v0c283.046 0 512.5-229.454 512.5-512.5s-229.454-512.5-512.5-512.5c-283.046 0-512.5 229.454-512.5 512.5s229.454 512.5 512.5 512.5z" />
<glyph unicode="&#xe91a;" glyph-name="info" d="M448.438 585.728c0 26.426 21.621 48.047 48.047 48.047h32.031c26.426 0 48.047-21.621 48.047-48.047v-32.031c0-26.426-21.621-48.047-48.047-48.047h-32.031c-26.426 0-48.047 21.621-48.047 48.047v32.031zM640.626 121.275h-256.25v64.063h64.063v192.188h-64.063v64.063h192.188v-256.25h64.063zM512.5 890.025c-283.046 0-512.5-229.454-512.5-512.5s229.454-512.5 512.5-512.5 512.5 229.454 512.5 512.5-229.454 512.5-512.5 512.5zM512.5-38.882c-229.975 0-416.407 186.432-416.407 416.407s186.432 416.407 416.407 416.407 416.407-186.432 416.407-416.407-186.432-416.407-416.407-416.407z" />
<glyph unicode="&#xe91b;" glyph-name="enter" d="M384.375 377.525h-320.313v128.125h320.313v128.125l192.188-192.188-192.188-192.188zM1025.001 890.025v-832.813l-384.375-192.188v192.188h-384.375v256.25h64.063v-192.188h320.313v576.563l256.25 128.125h-576.563v-256.25h-64.063v320.313z" />
<glyph unicode="&#xe91c;" glyph-name="exit" d="M768.751 249.4v128.125h-320.313v128.125h320.313v128.125l192.188-192.188zM704.688 313.462v-256.25h-320.313v-192.188l-384.375 192.188v832.813h704.688v-320.313h-64.063v256.25h-512.5l256.25-128.125v-576.563h256.25v192.188z" />
<glyph unicode="&#xe91d;" glyph-name="filter" d="M512.5 890.025c-283.046 0-512.5-71.704-512.5-160.156v-96.094l384.375-384.375v-320.313c0-35.381 57.362-64.063 128.125-64.063 70.761 0 128.125 28.682 128.125 64.063v320.313l384.375 384.375v96.094c0 88.452-229.454 160.156-512.5 160.156zM94.476 751.066c23.967 13.671 57.638 26.646 97.373 37.525 88.030 24.1 201.905 37.372 320.651 37.372 118.744 0 232.621-13.273 320.651-37.372 39.735-10.879 73.406-23.853 97.375-37.525 15.807-9.015 24.348-16.64 28.324-21.197-3.976-4.556-12.518-12.18-28.324-21.197-23.969-13.671-57.64-26.646-97.375-37.525-88.028-24.1-201.905-37.372-320.651-37.372s-232.621 13.273-320.651 37.372c-39.735 10.879-73.406 23.853-97.373 37.525-15.807 9.017-24.348 16.64-28.326 21.197 3.978 4.556 12.518 12.18 28.326 21.197z" />
<glyph unicode="&#xe91e;" glyph-name="file-o" horiz-adv-x="878" d="M838.857 660.571q16-16 27.429-43.429t11.429-50.286v-658.286q0-22.857-16-38.857t-38.857-16h-768q-22.857 0-38.857 16t-16 38.857v914.286q0 22.857 16 38.857t38.857 16h512q22.857 0 50.286-11.429t43.429-27.429zM585.143 800v-214.857h214.857q-5.714 16.571-12.571 23.429l-178.857 178.857q-6.857 6.857-23.429 12.571zM804.571-73.143v585.143h-237.714q-22.857 0-38.857 16t-16 38.857v237.714h-438.857v-877.714h731.429z" />
<glyph unicode="&#xe91f;" glyph-name="file-text" horiz-adv-x="878" d="M838.857 605.714q8-8 16-20.571h-269.714v269.714q12.571-8 20.571-16zM566.857 512h310.857v-603.429q0-22.857-16-38.857t-38.857-16h-768q-22.857 0-38.857 16t-16 38.857v914.286q0 22.857 16 38.857t38.857 16h457.143v-310.857q0-22.857 16-38.857t38.857-16zM658.286 91.428v36.571q0 8-5.143 13.143t-13.143 5.143h-402.286q-8 0-13.143-5.143t-5.143-13.143v-36.571q0-8 5.143-13.143t13.143-5.143h402.286q8 0 13.143 5.143t5.143 13.143zM658.286 237.714v36.571q0 8-5.143 13.143t-13.143 5.143h-402.286q-8 0-13.143-5.143t-5.143-13.143v-36.571q0-8 5.143-13.143t13.143-5.143h402.286q8 0 13.143 5.143t5.143 13.143zM658.286 384v36.571q0 8-5.143 13.143t-13.143 5.143h-402.286q-8 0-13.143-5.143t-5.143-13.143v-36.571q0-8 5.143-13.143t13.143-5.143h402.286q8 0 13.143 5.143t5.143 13.143z" />
<glyph unicode="&#xe920;" glyph-name="file" horiz-adv-x="878" d="M585.143 585.143v269.714q12.571-8 20.571-16l233.143-233.143q8-8 16-20.571h-269.714zM512 566.857q0-22.857 16-38.857t38.857-16h310.857v-603.429q0-22.857-16-38.857t-38.857-16h-768q-22.857 0-38.857 16t-16 38.857v914.286q0 22.857 16 38.857t38.857 16h457.143v-310.857z" />
<glyph unicode="&#xe921;" glyph-name="file-code-o" horiz-adv-x="878" d="M838.857 660.571q16-16 27.429-43.429t11.429-50.286v-658.286q0-22.857-16-38.857t-38.857-16h-768q-22.857 0-38.857 16t-16 38.857v914.286q0 22.857 16 38.857t38.857 16h512q22.857 0 50.286-11.429t43.429-27.429zM585.143 800v-214.857h214.857q-5.714 16.571-12.571 23.429l-178.857 178.857q-6.857 6.857-23.429 12.571zM804.571-73.143v585.143h-237.714q-22.857 0-38.857 16t-16 38.857v237.714h-438.857v-877.714h731.429zM274.286 438.857q4.571 6.286 12 7.143t13.714-3.714l29.143-21.714q6.286-4.571 7.143-12t-3.714-13.714l-104-138.857 104-138.857q4.571-6.286 3.714-13.714t-7.143-12l-29.143-21.714q-6.286-4.571-13.714-3.714t-12 7.143l-129.143 172q-8 10.857 0 21.714zM732.571 266.857q8-10.857 0-21.714l-129.143-172q-4.571-6.286-12-7.143t-13.714 3.714l-29.143 21.714q-6.286 4.571-7.143 12t3.714 13.714l104 138.857-104 138.857q-4.571 6.286-3.714 13.714t7.143 12l29.143 21.714q6.286 4.571 13.714 3.714t12-7.143zM378.286 3.428q-7.429 1.143-11.714 7.429t-3.143 13.714l78.857 474.857q1.143 7.429 7.429 11.714t13.714 3.143l36-5.714q7.429-1.143 11.714-7.429t3.143-13.714l-78.857-474.857q-1.143-7.429-7.429-11.714t-13.714-3.143z" />
<glyph unicode="&#xe922;" glyph-name="file-movie-o" horiz-adv-x="878" d="M838.857 660.571q16-16 27.429-43.429t11.429-50.286v-658.286q0-22.857-16-38.857t-38.857-16h-768q-22.857 0-38.857 16t-16 38.857v914.286q0 22.857 16 38.857t38.857 16h512q22.857 0 50.286-11.429t43.429-27.429zM585.143 800v-214.857h214.857q-5.714 16.571-12.571 23.429l-178.857 178.857q-6.857 6.857-23.429 12.571zM804.571-73.143v585.143h-237.714q-22.857 0-38.857 16t-16 38.857v237.714h-438.857v-877.714h731.429zM438.857 438.857q29.714 0 51.429-21.714t21.714-51.429v-219.429q0-29.714-21.714-51.429t-51.429-21.714h-219.429q-29.714 0-51.429 21.714t-21.714 51.429v219.429q0 29.714 21.714 51.429t51.429 21.714h219.429zM720 437.714q11.429-4.571 11.429-17.143v-329.143q0-12.571-11.429-17.143-4.571-1.143-6.857-1.143-8 0-13.143 5.143l-151.429 152v51.429l151.429 152q5.143 5.143 13.143 5.143 2.286 0 6.857-1.143z" />
<glyph unicode="&#xe923;" glyph-name="file-audio-o" horiz-adv-x="878" d="M838.857 660.571q16-16 27.429-43.429t11.429-50.286v-658.286q0-22.857-16-38.857t-38.857-16h-768q-22.857 0-38.857 16t-16 38.857v914.286q0 22.857 16 38.857t38.857 16h512q22.857 0 50.286-11.429t43.429-27.429zM585.143 800v-214.857h214.857q-5.714 16.571-12.571 23.429l-178.857 178.857q-6.857 6.857-23.429 12.571zM804.571-73.143v585.143h-237.714q-22.857 0-38.857 16t-16 38.857v237.714h-438.857v-877.714h731.429zM354.286 392q11.429-4.571 11.429-17.143v-310.857q0-12.571-11.429-17.143-4.571-1.143-6.857-1.143-6.857 0-13.143 5.143l-94.857 95.429h-74.857q-8 0-13.143 5.143t-5.143 13.143v109.714q0 8 5.143 13.143t13.143 5.143h74.857l94.857 95.429q9.143 8.571 20 4zM592.571-1.715q17.714 0 28.571 13.714 73.714 90.857 73.714 207.429t-73.714 207.429q-9.143 12-24.571 13.714t-26.857-8q-12-9.714-13.429-24.857t8.286-27.143q57.143-70.286 57.143-161.143t-57.143-161.143q-9.714-12-8.286-27.143t13.429-24.286q10.286-8.571 22.857-8.571zM472 82.857q15.429 0 26.857 11.429 49.714 53.143 49.714 125.143t-49.714 125.143q-10.286 10.857-25.714 11.429t-26.286-9.714-11.429-25.429 10.286-26.571q29.714-32.571 29.714-74.857t-29.714-74.857q-10.857-11.429-10.286-26.571t11.429-25.429q11.429-9.714 25.143-9.714z" />
<glyph unicode="&#xe924;" glyph-name="file-archive-o" horiz-adv-x="878" d="M365.714 658.285v73.143h-73.143v-73.143h73.143zM438.857 585.143v73.143h-73.143v-73.143h73.143zM365.714 512v73.143h-73.143v-73.143h73.143zM438.857 438.857v73.143h-73.143v-73.143h73.143zM838.857 660.571q16-16 27.429-43.429t11.429-50.286v-658.286q0-22.857-16-38.857t-38.857-16h-768q-22.857 0-38.857 16t-16 38.857v914.286q0 22.857 16 38.857t38.857 16h512q22.857 0 50.286-11.429t43.429-27.429zM585.143 800v-214.857h214.857q-5.714 16.571-12.571 23.429l-178.857 178.857q-6.857 6.857-23.429 12.571zM804.571-73.143v585.143h-237.714q-22.857 0-38.857 16t-16 38.857v237.714h-73.143v-73.143h-73.143v73.143h-292.571v-877.714h731.429zM446.286 338.857l61.143-199.429q4.571-15.429 4.571-29.714 0-47.429-41.429-78.571t-104.857-31.143-104.857 31.143-41.429 78.571q0 14.286 4.571 29.714 12 36 68.571 226.286v73.143h73.143v-73.143h45.143q12.571 0 22.286-7.429t13.143-19.429zM365.714 73.143q30.286 0 51.714 10.857t21.429 25.714-21.429 25.714-51.714 10.857-51.714-10.857-21.429-25.714 21.429-25.714 51.714-10.857z" />
<glyph unicode="&#xe925;" glyph-name="file-image-o" horiz-adv-x="878" d="M838.857 660.571q16-16 27.429-43.429t11.429-50.286v-658.286q0-22.857-16-38.857t-38.857-16h-768q-22.857 0-38.857 16t-16 38.857v914.286q0 22.857 16 38.857t38.857 16h512q22.857 0 50.286-11.429t43.429-27.429zM585.143 800v-214.857h214.857q-5.714 16.571-12.571 23.429l-178.857 178.857q-6.857 6.857-23.429 12.571zM804.571-73.143v585.143h-237.714q-22.857 0-38.857 16t-16 38.857v237.714h-438.857v-877.714h731.429zM731.429 182.857v-182.857h-585.143v109.714l109.714 109.714 73.143-73.143 219.429 219.429zM256 292.571q-45.714 0-77.714 32t-32 77.714 32 77.714 77.714 32 77.714-32 32-77.714-32-77.714-77.714-32z" />
<glyph unicode="&#xe926;" glyph-name="file-powerpoint-o" horiz-adv-x="878" d="M838.857 660.571q16-16 27.429-43.429t11.429-50.286v-658.286q0-22.857-16-38.857t-38.857-16h-768q-22.857 0-38.857 16t-16 38.857v914.286q0 22.857 16 38.857t38.857 16h512q22.857 0 50.286-11.429t43.429-27.429zM585.143 800v-214.857h214.857q-5.714 16.571-12.571 23.429l-178.857 178.857q-6.857 6.857-23.429 12.571zM804.571-73.143v585.143h-237.714q-22.857 0-38.857 16t-16 38.857v237.714h-438.857v-877.714h731.429zM237.714 60.571v-60.571h186.857v60.571h-53.143v95.429h78.286q43.429 0 67.429 8.571 38.286 13.143 60.857 49.714t22.571 83.429q0 46.286-21.143 80.571t-57.143 49.714q-27.429 10.857-74.286 10.857h-210.286v-61.143h52.571v-317.143h-52.571zM439.429 220.571h-68v153.143h68.571q29.714 0 47.429-10.286 32-18.857 32-65.714 0-50.857-35.429-68.571-17.714-8.571-44.571-8.571z" />
<glyph unicode="&#xe927;" glyph-name="file-excel-o" horiz-adv-x="878" d="M838.857 660.571q16-16 27.429-43.429t11.429-50.286v-658.286q0-22.857-16-38.857t-38.857-16h-768q-22.857 0-38.857 16t-16 38.857v914.286q0 22.857 16 38.857t38.857 16h512q22.857 0 50.286-11.429t43.429-27.429zM585.143 800v-214.857h214.857q-5.714 16.571-12.571 23.429l-178.857 178.857q-6.857 6.857-23.429 12.571zM804.571-73.143v585.143h-237.714q-22.857 0-38.857 16t-16 38.857v237.714h-438.857v-877.714h731.429zM245.143 60.571v-60.571h160.571v60.571h-42.857l58.857 92q2.857 4 5.714 9.429t4.286 7.714 2 2.286h1.143q0.571-2.286 2.857-5.714 1.143-2.286 2.571-4.286t3.429-4.571 3.714-4.857l61.143-92h-43.429v-60.571h166.286v60.571h-38.857l-109.714 156 111.429 161.143h38.286v61.143h-159.429v-61.143h42.286l-58.857-90.857q-2.286-4-5.714-9.429t-5.143-7.714l-1.143-1.714h-1.143q-0.571 2.286-2.857 5.714-3.429 6.286-9.714 13.143l-60.571 90.857h43.429v61.143h-165.714v-61.143h38.857l108-155.429-110.857-161.714h-38.857z" />
<glyph unicode="&#xe928;" glyph-name="file-word-o" horiz-adv-x="878" d="M838.857 660.571q16-16 27.429-43.429t11.429-50.286v-658.286q0-22.857-16-38.857t-38.857-16h-768q-22.857 0-38.857 16t-16 38.857v914.286q0 22.857 16 38.857t38.857 16h512q22.857 0 50.286-11.429t43.429-27.429zM585.143 800v-214.857h214.857q-5.714 16.571-12.571 23.429l-178.857 178.857q-6.857 6.857-23.429 12.571zM804.571-73.143v585.143h-237.714q-22.857 0-38.857 16t-16 38.857v237.714h-438.857v-877.714h731.429zM133.143 438.857v-61.143h40l93.714-377.714h90.857l73.143 277.143q4 11.429 5.714 26.286 1.143 9.143 1.143 13.714h2.286l1.714-13.714q0.571-1.714 2-11.429t3.143-14.857l73.143-277.143h90.857l93.714 377.714h40v61.143h-171.429v-61.143h51.429l-56.571-250.286q-2.857-11.429-4-26.286l-1.143-12h-2.286l-1.714 12q-0.571 2.857-2.286 12t-2.857 14.286l-82.286 311.429h-65.143l-82.286-311.429q-1.143-5.143-2.571-14t-2-12.286l-2.286-12h-2.286l-1.143 12q-1.143 14.857-4 26.286l-56.571 250.286h51.429v61.143h-171.429z" />
<glyph unicode="&#xe929;" glyph-name="file-pdf-o" horiz-adv-x="878" d="M838.857 660.571q16-16 27.429-43.429t11.429-50.286v-658.286q0-22.857-16-38.857t-38.857-16h-768q-22.857 0-38.857 16t-16 38.857v914.286q0 22.857 16 38.857t38.857 16h512q22.857 0 50.286-11.429t43.429-27.429zM585.143 800v-214.857h214.857q-5.714 16.571-12.571 23.429l-178.857 178.857q-6.857 6.857-23.429 12.571zM804.571-73.143v585.143h-237.714q-22.857 0-38.857 16t-16 38.857v237.714h-438.857v-877.714h731.429zM510.857 265.714q18.857-14.857 48-32 33.714 4 66.857 4 84 0 101.143-28 9.143-12.571 1.143-29.714 0-0.571-0.571-1.143l-1.143-1.143v-0.571q-3.429-21.714-40.571-21.714-27.429 0-65.714 11.429t-74.286 30.286q-126.286-13.714-224-47.429-87.429-149.714-138.286-149.714-8.571 0-16 4l-13.714 6.857q-0.571 0.571-3.429 2.857-5.714 5.714-3.429 20.571 5.143 22.857 32 52.286t75.429 55.143q8 5.143 13.143-3.429 1.143-1.143 1.143-2.286 29.714 48.571 61.143 112.571 38.857 77.714 59.429 149.714-13.714 46.857-17.429 91.143t3.714 72.857q6.286 22.857 24 22.857h12.571q13.143 0 20-8.571 10.286-12 5.143-38.857-1.143-3.429-2.286-4.571 0.571-1.714 0.571-4.571v-17.143q-1.143-70.286-8-109.714 31.429-93.714 83.429-136zM181.714 30.857q29.714 13.714 78.286 90.286-29.143-22.857-50-48t-28.286-42.286zM409.143 556.571q-8.571-24-1.143-75.429 0.571 4 4 25.143 0 1.714 4 24.571 0.571 2.286 2.286 4.571-0.571 0.571-0.571 1.143t-0.286 0.857-0.286 0.857q-0.571 12.571-7.429 20.571 0-0.571-0.571-1.143v-1.143zM338.286 178.857q77.143 30.857 162.286 46.286-1.143 0.571-7.429 5.429t-9.143 7.714q-43.429 38.286-72.571 100.571-15.429-49.143-47.429-112.571-17.143-32-25.714-47.429zM707.429 188q-13.714 13.714-80 13.714 43.429-16 70.857-16 8 0 10.286 0.571 0 0.571-1.143 1.714z" />
<glyph unicode="&#xe92a;" glyph-name="file-text-o" horiz-adv-x="878" d="M838.857 660.571q16-16 27.429-43.429t11.429-50.286v-658.286q0-22.857-16-38.857t-38.857-16h-768q-22.857 0-38.857 16t-16 38.857v914.286q0 22.857 16 38.857t38.857 16h512q22.857 0 50.286-11.429t43.429-27.429zM585.143 800v-214.857h214.857q-5.714 16.571-12.571 23.429l-178.857 178.857q-6.857 6.857-23.429 12.571zM804.571-73.143v585.143h-237.714q-22.857 0-38.857 16t-16 38.857v237.714h-438.857v-877.714h731.429zM219.429 420.571q0 8 5.143 13.143t13.143 5.143h402.286q8 0 13.143-5.143t5.143-13.143v-36.571q0-8-5.143-13.143t-13.143-5.143h-402.286q-8 0-13.143 5.143t-5.143 13.143v36.571zM640 292.571q8 0 13.143-5.143t5.143-13.143v-36.571q0-8-5.143-13.143t-13.143-5.143h-402.286q-8 0-13.143 5.143t-5.143 13.143v36.571q0 8 5.143 13.143t13.143 5.143h402.286zM640 146.285q8 0 13.143-5.143t5.143-13.143v-36.571q0-8-5.143-13.143t-13.143-5.143h-402.286q-8 0-13.143 5.143t-5.143 13.143v36.571q0 8 5.143 13.143t13.143 5.143h402.286z" />
</font>
</defs>
</svg>
